<svg xmlns="http://www.w3.org/2000/svg" width="500" viewBox="0 0 375 375" height="500" version="1.0"><defs><clipPath id="a"><path d="M79.504 75.297h215.988v215.988H79.504zm0 0"/></clipPath><clipPath id="b"><path d="M187.5 75.297c-59.645 0-107.996 48.348-107.996 107.992 0 59.645 48.351 107.996 107.996 107.996 59.645 0 107.992-48.351 107.992-107.996 0-59.644-48.347-107.992-107.992-107.992zm0 0"/></clipPath><clipPath id="c"><path d="M84.887 80.676h205.218v205.219H84.887zm0 0"/></clipPath><clipPath id="d"><path d="M187.496 80.676c-56.668 0-102.61 45.941-102.61 102.61 0 56.671 45.942 102.609 102.61 102.609 56.672 0 102.61-45.938 102.61-102.61 0-56.668-45.938-102.61-102.61-102.61zm0 0"/></clipPath><clipPath id="e"><path d="M79.504 240.766h215.992v64.218H79.504zm0 0"/></clipPath><clipPath id="f"><path d="M162 99.277h48V199h-48zm0 0"/></clipPath><clipPath id="g"><path d="M116.719 205H166v33h-49.281zm0 0"/></clipPath><clipPath id="h"><path d="M218 222h40.469v27.277H218zm0 0"/></clipPath></defs><path fill="#fff" d="M-37.5-37.5h450v450h-450z"/><path fill="#fff" d="M-37.5-37.5h450v450h-450z"/><g clip-path="url(#a)"><g clip-path="url(#b)"><path fill="none" d="M187.5 75.297c-59.645 0-107.996 48.348-107.996 107.992 0 59.645 48.351 107.996 107.996 107.996 59.645 0 107.992-48.351 107.992-107.996 0-59.644-48.347-107.992-107.992-107.992zm0 0" stroke="#383535" stroke-width="6"/></g></g><g clip-path="url(#c)"><g clip-path="url(#d)"><path fill="none" d="M187.496 80.676c-56.668 0-102.61 45.941-102.61 102.61 0 56.671 45.942 102.609 102.61 102.609 56.672 0 102.61-45.938 102.61-102.61 0-56.668-45.938-102.61-102.61-102.61zm0 0" stroke="#383535" stroke-width="1.5"/></g></g><g clip-path="url(#e)"><path fill="#fff" d="M79.504 240.766h215.992v64.218H79.504zm0 0"/></g><path fill="#00bf63" d="M232.207 178.695l-20.66-14.586v-2.164l20.66 14.586zm0 5.055l-20.66-14.586v-2.16l20.66 14.586zm0 5.059l-20.66-14.586v-2.16l20.66 14.582zm0 5.054l-20.66-14.586v-2.16l20.66 14.582zm0 5.055l-20.66-14.582v-2.16l20.66 14.582zm0 5.059l-20.66-14.586v-2.16l20.66 14.582zm0 5.054l-20.66-14.582v-2.164l20.66 14.586zm-20.66-51.61l-4.461 2.571v39.696l2.027.253 1.02.133.742.707 4.55 4.352 11.294 7.976 3.422-.48-18.594-13.125v-2.16l20.66 14.582v.414l.582-.078 1.746-.246.242.3V173.82zm-8.64 4.981v16.457h-1.145v-15.8l-3.992 2.304v25.73h-.797V165.82l-2.606 1.5v26.852h8.34v4.965l2.707.34v-38.52l-2.508 1.445"/><path fill="#383535" d="M192.082 225.605l.227.196v1.785l-.227-.195-.82-.73v-1.786l.82.73"/><g clip-path="url(#f)"><path fill="#383535" d="M208.082 134.605l-5.008-4.437v-9.898l5.008 4.437zm0 11.684l-5.008-4.434v-9.902l5.008 4.438zm-5.91-16.918l-3.254-2.879-1.754-1.555v-9.898l1.754 1.55 3.254 2.884zm0 11.684l-3.254-2.88-1.754-1.554v-9.898l1.754 1.554 3.254 2.88zm0 11.687l-3.254-2.883-1.754-1.55v-9.899l1.754 1.555 3.254 2.879zm-5.906-28.601l-.762-.676-3.422-3.024-.824-.734v-9.894l.824.73 3.422 3.023.762.676zm0 11.683l-.762-.676-3.422-3.02-.824-.733v-9.899l.824.73 3.422 3.024.762.676zm0 11.688l-.762-.676-3.422-3.024-.824-.734v-9.898l.824.734 3.422 3.024.762.675zm0 11.683l-.762-.675-3.422-3.02-.824-.734v-9.899l.824.73 3.422 3.024.762.676zm-5.91-40.285l-1.692-1.492-2.98-2.64-.34-.301v-9.899l.34.3 2.98 2.642 1.691 1.496zm0 11.688l-1.692-1.496-2.98-2.641-.34-.297v-9.898l.34.3 2.98 2.637 1.691 1.496zm0 11.683l-1.692-1.492-2.98-2.64-.34-.301v-9.899l.34.301 2.98 2.64 1.691 1.497zm0 11.688l-1.692-1.5-2.98-2.637-.34-.3v-9.9l.34.302 2.98 2.64 1.691 1.492zm0 11.683l-1.692-1.496-2.98-2.64-.34-.297v-9.903l.34.301 2.98 2.64 1.691 1.497zm0 11.684l-1.692-1.496-2.98-2.637-.34-.305v-9.894l.34.297 2.98 2.64 1.691 1.496zm0 11.684l-1.692-1.497-2.98-2.636-.34-.301v-9.899l.34.301 2.98 2.64 1.691 1.493zm17.832-67.395l-6.063-5.367-3.418-3.024-3.414-3.023-3.422-3.023-3.414-3.028-2.984-2.64-2.47-2.184-20.042 14.477v22.343l13.8 5.614 1.282.52v54.632l9.46 1.262-1.82-1.614-.34-.3v-9.895l.34.297 2.981 2.64 1.691 1.497v3.363h.903v-2.567l.004.004v-1.789l-.004-.004v-9.894l.004.004v-1.79l-.004-.003v-9.899l.004.004v-1.785l-.004-.004v-9.898l.824.73 3.422 3.024.762.675v1.665l.898-.52v-.348l.238.211 1.22-.703-1.458-1.293v-9.898l1.754 1.554 3.254 2.88v4.71l.902-.52v-3.394l2.32 2.055.141-.078 1.082-.625-3.543-3.137v-9.898l5.008 4.437v7.754l1.586-.914v-31.98l-1.48-1.313"/></g><path fill="#00bf63" d="M140.21 151.184l17.345-9.692v3.946l1.937-1.375 15.406 6.265v-5.566l-16.93-6.883-17.757 13.305"/><path fill="#00bf63" d="M140.21 160.45l17.345-9.692v3.941l1.937-1.37 15.406 6.26v-5.562l-16.93-6.886-17.757 13.308"/><path fill="#00bf63" d="M140.21 169.71l17.345-9.69v3.945l1.937-1.375 15.406 6.265v-5.562l-16.93-6.887-17.757 13.305"/><path fill="#00bf63" d="M140.21 178.977l17.345-9.692v3.942l1.937-1.372 15.406 6.266v-5.566l-16.93-6.883-17.757 13.305"/><path fill="#00bf63" d="M140.21 188.242l17.345-9.695v3.945l1.937-1.375 15.406 6.266v-5.563l-16.93-6.886-17.757 13.308m-.001 9.262l4.34-3.25-1.206 1.5zm0 0"/><path fill="#00bf63" d="M174.898 191.082v5.566l-.53-.218-14.876-6.047-1.937 1.375v-3.946l-9.211 5.149-.75-.102-1.004-.136 11.379-8.524 16.93 6.883"/><path fill="#00bf63" d="M160.828 194.625l-3.746-.5.887-.664zm0 0"/><g clip-path="url(#g)"><path fill="#383535" d="M165.496 224.395c-.316-.266-12.402-8.301-18.316-13.133l-30.465 25.894 28.203-29.64 2.262-2.375 3.836 4.03 14.48 15.224"/></g><path fill="#00bf63" d="M200.617 213.332h-12.039v4.168l-4.773.582-1.032.125-.746.715-8.879 8.496-25.968-27.29-21.618 22.72 21.618-26.91 43.066 5.746v5.265l2.266 2.383v-12.05h7.086v4.597l9.129 1.148 11.484 10.989-19.594 2.734v-3.418"/><path fill="#383535" d="M141.25 226.578v1.336h4.898v-6.234a4.896 4.896 0 00-4.898 4.898m6.828-4.898v6.234h4.899v-1.336a4.896 4.896 0 00-4.899-4.898m-6.828 13.054h4.898v-4.898h-4.898v4.898m6.828 0h4.899v-4.898h-4.899v4.898"/><g clip-path="url(#h)"><path fill="#00bf63" d="M258.273 249.234L240.66 234.27l-7.441-6.329c-2.258 1.844-5.606 4.25-8.57 6.329-3.43 2.398-6.356 4.351-6.497 4.468l4.254-4.468 7.656-8.047 1.38-1.453 1.777-1.864 1.86 1.953 23.194 24.375"/></g><path fill="#383535" d="M250.996 237.465L233.22 218.78l-3.828 4.024-10.907 11.465-11.984 12.59h-49.164l17.953-17.188 8.887-8.504 7.508-.914v-3.813h5.828v9.91l1.863-1.96v-4.328l23.695-3.31 10.149-1.417 17.777 22.129"/><path fill="#00bf63" d="M238.098 240.535v1.098h-4.032v-5.13a4.031 4.031 0 014.032 4.032m-5.618-4.031v5.129h-4.03v-1.098a4.031 4.031 0 014.03-4.031m5.618 10.742h-4.032v-4.031h4.032v4.031m-5.618 0h-4.03v-4.031h4.03v4.031"/><path fill="#383535" d="M174.367 196.43l.531.218v-.144zm-73.113 98.914h1.313v2.531a3.53 3.53 0 01-1.172.594c-.45.133-.899.203-1.344.203-.648 0-1.23-.133-1.75-.406a3.21 3.21 0 01-1.219-1.156c-.293-.489-.437-1.047-.437-1.672 0-.613.144-1.164.437-1.656a3.098 3.098 0 011.235-1.141c.52-.281 1.11-.422 1.765-.422.54 0 1.035.094 1.485.281.445.18.82.446 1.125.797l-.938.86a2.12 2.12 0 00-1.61-.704c-.398 0-.75.086-1.062.25a1.855 1.855 0 00-.718.704c-.168.304-.25.648-.25 1.03 0 .4.082.747.25 1.048.175.304.414.539.718.703.301.168.649.25 1.047.25.414 0 .79-.086 1.125-.266zm8.167 2.063v1.156h-4.828v-6.235h4.719v1.157h-3.281v1.36h2.89v1.124h-2.89v1.438zm3.885 1.265c-.492 0-.964-.07-1.422-.203-.46-.133-.828-.305-1.109-.516l.484-1.093a3.467 3.467 0 002.063.656c.406 0 .707-.063.906-.188.196-.125.297-.285.297-.484a.45.45 0 00-.172-.36 1.183 1.183 0 00-.453-.234 7.897 7.897 0 00-.734-.203 9.315 9.315 0 01-1.157-.344 1.91 1.91 0 01-.78-.546c-.22-.25-.329-.582-.329-1 0-.352.098-.676.297-.97.195-.3.488-.534.875-.702.395-.176.879-.266 1.453-.266.395 0 .781.047 1.156.14a3.66 3.66 0 011.016.407l-.453 1.11c-.574-.333-1.149-.5-1.719-.5-.406 0-.71.07-.906.202a.588.588 0 00-.281.516c0 .211.109.367.328.469.218.105.554.21 1.015.312.477.118.868.23 1.172.344.301.117.563.293.781.531.22.243.329.57.329.985 0 .355-.102.683-.297.984-.2.293-.5.527-.907.703-.398.164-.882.25-1.453.25zm5.623-5.172h-2v-1.172h5.437v1.172h-2v5.063h-1.437zm4.897-1.172h1.453v6.235h-1.453zm6.641 6.344c-.657 0-1.247-.14-1.766-.422a3.21 3.21 0 01-1.219-1.156 3.152 3.152 0 01-.437-1.656c0-.602.144-1.149.437-1.64a3.24 3.24 0 011.219-1.157c.52-.281 1.11-.422 1.766-.422.644 0 1.222.14 1.734.422.52.281.926.668 1.219 1.156.3.492.453 1.04.453 1.64 0 .618-.153 1.169-.453 1.657-.293.492-.7.875-1.22 1.156-.51.282-1.089.422-1.733.422zm0-1.234c.363 0 .691-.082.984-.25.3-.164.535-.399.703-.703.164-.301.25-.649.25-1.047a2.14 2.14 0 00-.25-1.031 1.79 1.79 0 00-.703-.704 1.982 1.982 0 00-.984-.25c-.375 0-.715.086-1.016.25a1.777 1.777 0 00-.688.704c-.168.304-.25.648-.25 1.03 0 .4.082.747.25 1.048.165.304.395.539.688.703.3.168.64.25 1.016.25zm10.895-5.11v6.235h-1.187l-3.094-3.781v3.78h-1.437v-6.234h1.203l3.093 3.782v-3.782zm6.278 4.892h-2.89l-.563 1.343h-1.469l2.782-6.235h1.422l2.78 6.235h-1.515zm-.453-1.095l-.984-2.375-1 2.375zm4.295.782c.25 0 .453.078.609.234a.83.83 0 01.25.625c0 .117-.016.234-.047.36a5.498 5.498 0 01-.187.53l-.516 1.282h-.875l.39-1.422a.748.748 0 01-.359-.281.842.842 0 01-.125-.469c0-.258.078-.469.235-.625a.874.874 0 01.625-.234zm8.776 1.765c-.637 0-1.21-.133-1.719-.406a3.21 3.21 0 01-1.218-1.156c-.293-.489-.438-1.047-.438-1.672 0-.613.145-1.164.438-1.656.3-.489.707-.868 1.218-1.141.508-.281 1.086-.422 1.735-.422a3.48 3.48 0 011.453.297c.437.187.805.46 1.11.812l-.923.86c-.43-.488-.953-.735-1.578-.735-.387 0-.73.086-1.031.25a1.74 1.74 0 00-.703.704c-.168.304-.25.648-.25 1.03 0 .4.082.747.25 1.048.164.304.398.539.703.703.3.168.644.25 1.031.25.625 0 1.149-.242 1.578-.735l.922.86a3.113 3.113 0 01-1.11.828 3.705 3.705 0 01-1.468.281zm7.266 0c-.656 0-1.246-.14-1.766-.422a3.21 3.21 0 01-1.218-1.156 3.152 3.152 0 01-.438-1.656c0-.602.145-1.149.438-1.64a3.24 3.24 0 011.218-1.157c.52-.281 1.11-.422 1.766-.422.644 0 1.223.14 1.734.422.52.281.926.668 1.22 1.156.3.492.452 1.04.452 1.64a3.09 3.09 0 01-.453 1.657c-.293.492-.7.875-1.219 1.156-.511.282-1.09.422-1.734.422zm0-1.234c.363 0 .691-.082.984-.25.301-.164.535-.399.703-.703.164-.301.25-.649.25-1.047a2.14 2.14 0 00-.25-1.031 1.79 1.79 0 00-.703-.704 1.982 1.982 0 00-.984-.25c-.375 0-.715.086-1.016.25a1.777 1.777 0 00-.687.704c-.168.304-.25.648-.25 1.03 0 .4.082.747.25 1.048.164.304.394.539.687.703.301.168.64.25 1.016.25zm10.849 1.125v-3.735l-1.844 3.079h-.64l-1.829-3v3.656h-1.36v-6.235h1.204l2.328 3.875 2.297-3.875h1.188l.015 6.235zm6.229-6.235c.55 0 1.03.094 1.437.282.406.18.719.437.938.781.218.336.328.734.328 1.203 0 .461-.11.86-.328 1.203-.22.336-.532.594-.938.781-.406.18-.887.266-1.437.266h-1.25v1.719h-1.454v-6.235zm-.079 3.344c.438 0 .766-.094.985-.281.226-.188.344-.453.344-.797 0-.351-.118-.625-.344-.812-.219-.188-.547-.282-.985-.282h-1.171v2.172zm8.57 2.891l-1.203-1.735h-1.328v1.735h-1.454v-6.235h2.704c.55 0 1.03.094 1.437.282.406.18.719.437.938.781.218.336.328.734.328 1.203 0 .461-.11.86-.328 1.203-.22.336-.54.59-.954.766l1.407 2zm-.031-3.969c0-.351-.118-.625-.344-.812-.219-.188-.547-.282-.985-.282h-1.171v2.172h1.171c.438 0 .766-.094.985-.281.226-.188.344-.453.344-.797zm7.393 2.626h-2.891l-.562 1.343h-1.47l2.782-6.235h1.422l2.781 6.235h-1.515zm-.453-1.095l-.985-2.375-1 2.375zm10.065.235v2.203h-1.453v-2.235l-2.407-4h1.532l1.671 2.766 1.657-2.766h1.422zm12.919-4.032l-2.703 6.235h-1.422l-2.687-6.235h1.562l1.89 4.454 1.923-4.454zm6.164 5.079v1.156h-4.829v-6.235h4.719v1.157h-3.282v1.36h2.891v1.124h-2.89v1.438zm7.556-5.079v6.235h-1.187l-3.094-3.781v3.78h-1.438v-6.234h1.203l3.094 3.782v-3.782zm2.169 0h2.844c.675 0 1.269.133 1.78.391.52.262.927.625 1.22 1.094.289.469.437 1.012.437 1.625 0 .625-.148 1.172-.437 1.64-.293.47-.7.836-1.22 1.094-.511.262-1.105.39-1.78.39h-2.844zm2.765 5.047c.625 0 1.118-.172 1.485-.515.375-.352.562-.828.562-1.422s-.187-1.063-.562-1.406c-.367-.344-.86-.516-1.485-.516h-1.312v3.86zm10.11.032v1.156h-4.827v-6.235h4.718v1.157h-3.28v1.36h2.89v1.124h-2.89v1.438zm8.032 1.265c-.637 0-1.211-.133-1.719-.406a3.21 3.21 0 01-1.219-1.156c-.293-.489-.437-1.047-.437-1.672 0-.613.144-1.164.437-1.656a3.135 3.135 0 011.219-1.141c.508-.281 1.086-.422 1.734-.422.54 0 1.024.102 1.454.297.437.187.804.46 1.109.812l-.922.86c-.43-.488-.953-.735-1.578-.735-.387 0-.73.086-1.031.25a1.74 1.74 0 00-.703.704c-.168.304-.25.648-.25 1.03 0 .4.082.747.25 1.048.164.304.398.539.703.703.3.168.644.25 1.03.25.626 0 1.15-.242 1.579-.735l.922.86a3.113 3.113 0 01-1.11.828c-.437.187-.93.281-1.468.281zm7.266 0c-.657 0-1.246-.14-1.766-.422a3.21 3.21 0 01-1.219-1.156 3.152 3.152 0 01-.437-1.656c0-.602.144-1.149.437-1.64a3.24 3.24 0 011.219-1.157c.52-.281 1.11-.422 1.766-.422.644 0 1.222.14 1.734.422.52.281.926.668 1.219 1.156.3.492.453 1.04.453 1.64a3.09 3.09 0 01-.453 1.657c-.293.492-.7.875-1.219 1.156-.512.282-1.09.422-1.734.422zm0-1.234c.363 0 .691-.082.984-.25.3-.164.535-.399.703-.703.164-.301.25-.649.25-1.047a2.14 2.14 0 00-.25-1.031 1.79 1.79 0 00-.703-.704 1.982 1.982 0 00-.984-.25c-.375 0-.715.086-1.016.25a1.777 1.777 0 00-.688.704c-.167.304-.25.648-.25 1.03 0 .4.083.747.25 1.048.165.304.395.539.688.703.3.168.64.25 1.016.25zm10.895-5.11v6.235h-1.187l-3.094-3.781v3.78h-1.437v-6.234h1.203l3.093 3.782v-3.782zm-116.918 13.04v1.656h2.875v1.156h-2.875v2.266h-1.453v-6.235h4.719v1.157zm9.038 3.734h-2.891l-.562 1.344h-1.47l2.782-6.235h1.422l2.781 6.235h-1.515zm-.453-1.094l-.985-2.375-1 2.375zm6.84 2.547c-.636 0-1.21-.133-1.718-.406a3.21 3.21 0 01-1.219-1.156c-.293-.489-.437-1.047-.437-1.672 0-.613.144-1.164.437-1.656a3.135 3.135 0 011.219-1.141c.508-.281 1.086-.422 1.734-.422.54 0 1.024.102 1.453.297.438.187.805.46 1.11.812l-.922.86c-.43-.488-.953-.735-1.578-.735-.387 0-.73.086-1.031.25a1.74 1.74 0 00-.704.704c-.168.304-.25.648-.25 1.03 0 .4.082.747.25 1.048.165.304.399.539.704.703.3.168.644.25 1.03.25.626 0 1.15-.242 1.579-.735l.922.86a3.113 3.113 0 01-1.11.828c-.437.187-.93.281-1.468.281zm4.235-6.344h1.453v6.235h-1.453zm3.61 0h1.453v5.063h3.125v1.172h-4.578zm6.069 0h1.453v6.235h-1.453zm3.61 0h2.843c.676 0 1.27.133 1.782.391.52.262.925.625 1.218 1.094.29.469.438 1.012.438 1.625 0 .625-.149 1.172-.438 1.64-.293.47-.699.836-1.218 1.094-.512.262-1.106.39-1.782.39h-2.843zm2.765 5.047c.625 0 1.117-.172 1.485-.515.375-.352.562-.828.562-1.422s-.187-1.063-.562-1.406c-.368-.344-.86-.516-1.485-.516h-1.312v3.86zm9.391-.156h-2.89l-.562 1.344h-1.47l2.782-6.235h1.422l2.781 6.235h-1.515zm-.452-1.094l-.985-2.375-1 2.375zm3.856-3.797h2.844c.676 0 1.27.133 1.781.391.52.262.926.625 1.22 1.094.288.469.437 1.012.437 1.625 0 .625-.149 1.172-.438 1.64-.293.47-.699.836-1.219 1.094-.511.262-1.105.39-1.78.39h-2.845zm2.766 5.047c.625 0 1.117-.172 1.484-.515.375-.352.563-.828.563-1.422s-.188-1.063-.563-1.406c-.367-.344-.859-.516-1.484-.516h-1.312v3.86zm-50.461-25.644l-4.454-6.39a7.618 7.618 0 01-.843.03h-4.922v6.36h-4.063v-21.812h8.985c1.882 0 3.523.312 4.922.937 1.406.625 2.484 1.524 3.234 2.688.75 1.156 1.125 2.539 1.125 4.14 0 1.637-.402 3.047-1.203 4.235-.805 1.187-1.95 2.07-3.438 2.64l5.016 7.172zm-.094-14.047c0-1.394-.461-2.46-1.375-3.203-.918-.75-2.258-1.125-4.016-1.125h-4.734v8.688h4.734c1.758 0 3.098-.38 4.016-1.14.914-.759 1.375-1.833 1.375-3.22zm24.943 10.657v3.39h-16.36v-21.812h15.923v3.406h-11.86v5.656h10.532v3.344H174.39v6.016zm18.668-1.657H194.45l-2.156 5.047h-4.172l9.813-21.812h3.984l9.844 21.812h-4.235zm-1.343-3.172l-4.11-9.546-4.078 9.546zm14.957-10.155h-7.234v-3.438h18.5v3.437h-7.22v18.375h-4.046zm0 0"/></svg>