<svg xmlns="http://www.w3.org/2000/svg" width="500" viewBox="0 0 375 225" height="300" version="1.0"><defs><clipPath id="a"><path d="M68 48.852h44V140H68zm0 0"/></clipPath><clipPath id="b"><path d="M26.414 146H72v30H26.414zm0 0"/></clipPath><clipPath id="c"><path d="M119 162h37.914v24.852H119zm0 0"/></clipPath></defs><path fill="#00bf63" d="M132.715 121.953l-19.02-13.426v-1.988l19.02 13.422zm0 4.652l-19.02-13.425v-1.989l19.02 13.426zm0 4.657l-19.02-13.426v-1.988l19.02 13.422zm0 4.652l-19.02-13.426V120.5l19.02 13.422zm0 4.656l-19.02-13.425v-1.989l19.02 13.422zm0 4.653l-19.02-13.422v-1.992l19.02 13.421zm0 4.656l-19.02-13.426v-1.992l19.02 13.426zm-19.02-47.508l-4.105 2.367v36.54l1.867.234.938.117.683.656 4.188 4.004 10.394 7.34 3.153-.441-17.118-12.083v-1.988l19.02 13.426v.379l.535-.074 1.61-.223.218.273v-35.43zm-7.953 4.586v15.148h-1.05v-14.543l-3.676 2.118v23.687h-.735v-23.262l-2.394 1.38v24.714h7.672v4.57l2.496.313v-35.457l-2.313 1.332"/><path fill="#fff" d="M95.781 165.129l.207.184v1.644l-.207-.184-.754-.668v-1.644l.754.668"/><g clip-path="url(#a)"><path fill="#fff" d="M110.508 81.371l-4.61-4.086v-9.11l4.61 4.083zm0 10.754l-4.61-4.082V78.93l4.61 4.086zm-5.438-15.57l-2.996-2.653-1.617-1.43V63.36l1.617 1.43 2.996 2.652zm0 10.754l-2.996-2.653-1.617-1.43v-9.109l1.617 1.43 2.996 2.648zm0 10.757l-2.996-2.652-1.617-1.43v-9.113l1.617 1.434 2.996 2.648zm-5.437-26.328l-.703-.62-3.149-2.782-.761-.676v-9.11l.761.673 3.149 2.785.703.62zm0 10.758l-.703-.625-3.149-2.781-.761-.676v-9.11l.761.673 3.149 2.785.703.62zm0 10.754l-.703-.621-3.149-2.785-.761-.672v-9.113l.761.675 3.149 2.782.703.62zm0 10.758l-.703-.625-3.149-2.781-.761-.676v-9.11l.761.676 3.149 2.781.703.622zM94.19 66.926l-1.554-1.375-2.746-2.43-.309-.277v-9.11l.309.278 2.746 2.43 1.554 1.374zm0 10.754l-1.554-1.371-2.746-2.434-.309-.273v-9.114l.309.278 2.746 2.43 1.554 1.374zm0 10.757l-1.554-1.374-2.746-2.434-.309-.274v-9.109l.309.274 2.746 2.43 1.554 1.378zm0 10.754l-1.554-1.375-2.746-2.43-.309-.277V86l.309.277 2.746 2.43 1.554 1.375zm0 10.754l-1.554-1.375-2.746-2.43-.309-.273v-9.113l.309.277 2.746 2.43 1.554 1.375zm0 10.758l-1.554-1.379-2.746-2.426-.309-.277v-9.11l.309.274 2.746 2.43 1.554 1.375zm0 10.754l-1.554-1.375-2.746-2.43-.309-.277v-9.11l.309.278 2.746 2.426 1.554 1.379zm16.414-62.035l-5.582-4.938-6.289-5.57-3.148-2.781-3.145-2.785-2.742-2.43-2.273-2.012-18.45 13.328v20.567l12.704 5.164 1.18.48v50.285l8.706 1.165-1.675-1.489-.309-.273v-9.11l.309.274 2.746 2.43 1.554 1.375v3.097h.829v-2.363l.007.004v-1.645l-.007-.004v-9.109l.007.004v-1.645l-.007-.004v-9.113l.007.004v-1.644l-.007-.004v-9.11l.761.676 3.149 2.777.703.625v1.532l.824-.477v-.32l.219.191 1.125-.648-1.344-1.188v-9.11l1.617 1.43 2.996 2.649v4.336l.828-.477v-3.125l2.137 1.895.13-.078.995-.574-3.262-2.887v-9.11l4.61 4.086v7.137l1.46-.844V70.633l-1.363-1.211"/></g><path fill="#00bf63" d="M48.035 96.633L64 87.71v3.629l1.785-1.266 14.18 5.77v-5.125l-15.582-6.336-16.348 12.25"/><path fill="#00bf63" d="M48.035 105.16L64 96.238v3.63l1.785-1.266 14.18 5.77v-5.126L64.383 92.91l-16.348 12.25"/><path fill="#00bf63" d="M48.035 113.684L64 104.766v3.629l1.785-1.266 14.18 5.766v-5.122l-15.582-6.335-16.348 12.246"/><path fill="#00bf63" d="M48.035 122.21L64 113.294v3.629l1.785-1.266 14.18 5.766V116.3l-15.582-6.336-16.348 12.246"/><path fill="#00bf63" d="M48.035 130.738L64 121.82v3.63l1.785-1.266 14.18 5.765v-5.12l-15.582-6.337-16.348 12.246m0 8.528l3.996-2.993-1.11 1.383zm0 0"/><path fill="#00bf63" d="M79.965 133.355v5.122l-.488-.2-13.696-5.566L64 133.977v-3.633l-8.477 4.738-.691-.09-.926-.125 10.473-7.847 15.586 6.335"/><path fill="#00bf63" d="M67.016 136.617l-3.45-.46.813-.61zm0 0"/><g clip-path="url(#b)"><path fill="#fff" d="M71.313 164.016c-.297-.246-11.418-7.637-16.864-12.086L26.41 175.766l25.957-27.286 2.082-2.183 3.531 3.71 13.333 14.009"/></g><path fill="#00bf63" d="M103.64 153.836H92.556v3.836l-4.395.535-.945.113-.688.66-8.172 7.82-23.906-25.116-19.894 20.91 19.898-24.77 39.637 5.29v4.843l2.086 2.195V139.06h6.523v4.234l8.403 1.055 10.57 10.117-18.031 2.52v-3.15"/><path fill="#fff" d="M48.992 166.027v1.227H53.5v-5.738a4.51 4.51 0 00-4.508 4.511m6.285-4.511v5.738h4.508v-1.227a4.508 4.508 0 00-4.508-4.511m-6.285 12.019H53.5v-4.508h-4.508v4.508m6.285 0h4.508v-4.508h-4.508v4.508"/><g clip-path="url(#c)"><path fill="#00bf63" d="M156.707 186.883l-16.21-13.778-6.852-5.824c-2.075 1.696-5.157 3.914-7.887 5.824-3.16 2.211-5.852 4.008-5.98 4.114l3.917-4.114 7.047-7.406 1.27-1.336 1.633-1.715 1.71 1.797 21.352 22.438"/></g><path fill="#fff" d="M150.012 176.05l-16.367-17.198-3.524 3.703-10.039 10.55-11.027 11.59H63.797l16.527-15.82 8.18-7.828 6.91-.84v-3.512h5.367v9.121l1.715-1.8v-3.985l21.805-3.047 9.344-1.304 16.367 20.37"/><path fill="#00bf63" d="M138.133 178.871v1.012h-3.707v-4.719a3.708 3.708 0 013.707 3.707m-5.168-3.707v4.719h-3.707v-1.012a3.708 3.708 0 013.707-3.707m5.168 9.886h-3.707v-3.71h3.707v3.71m-5.168 0h-3.707v-3.71h3.707v3.71"/><path fill="#fff" d="M79.477 138.277l.488.2v-.133zm122.902 5.488l-11.094-20.125h-3.11v20.125h-13V90.453h21.798c4.207 0 7.789.734 10.75 2.203 2.968 1.469 5.187 3.48 6.656 6.031 1.469 2.555 2.203 5.402 2.203 8.547 0 3.543-1 6.71-3 9.5-2 2.781-4.953 4.758-8.86 5.922l12.313 21.11zm-14.203-29.312h8.047c2.375 0 4.156-.582 5.343-1.75 1.196-1.164 1.797-2.813 1.797-4.938 0-2.031-.601-3.625-1.797-4.781-1.187-1.164-2.968-1.75-5.343-1.75h-8.047zm49.519-13.594v10.781h17.39v10.016h-17.39v11.703h19.672v10.406h-32.672V90.453h32.672v10.406zm61.291 33.484H279.08l-3.187 9.422h-13.594l19.281-53.312h15.047l19.297 53.312h-13.75zm-3.343-10.015l-6.61-19.532-6.531 19.532zm64.474-33.875v10.406h-14.125v42.906h-12.984V100.86h-14.125V90.453zm0 0"/></svg>